<svg preserveAspectRatio="none" width="100%" height="100%" overflow="visible" style="display: block;" viewBox="0 0 28 28" fill="none" xmlns="http://www.w3.org/2000/svg">
<path id="Subtract" d="M14 0C21.732 0 28 6.26801 28 14C28 21.732 21.732 28 14 28C6.26801 28 0 21.732 0 14C0 6.26801 6.26801 0 14 0ZM14.0605 7.93945C13.4748 7.35367 12.5252 7.35367 11.9395 7.93945L7.00977 12.8682C6.38492 13.493 6.38493 14.507 7.00977 15.1318L11.9395 20.0605C12.5252 20.6463 13.4748 20.6463 14.0605 20.0605C14.6463 19.4748 14.6463 18.5252 14.0605 17.9395L11.6514 15.5303L19.502 15.9053C20.5896 15.9571 21.5 15.0888 21.5 14C21.5 12.9112 20.5896 12.0429 19.502 12.0947L11.6514 12.4688L14.0605 10.0605C14.6463 9.47476 14.6463 8.52524 14.0605 7.93945Z" fill="var(--fill-0, #1A1A1A)"/>
</svg>
