<svg preserveAspectRatio="none" width="100%" height="100%" overflow="visible" style="display: block;" viewBox="0 0 24 24" fill="none" xmlns="http://www.w3.org/2000/svg">
<path id="Union" d="M12 0C13.4651 1.9212e-07 14.6258 1.23718 14.5322 2.69922L14.0684 9.93164L21.3008 9.46875C22.7626 9.37522 23.9997 10.5352 24 12C24 13.465 22.7628 14.6258 21.3008 14.5322L14.0674 14.0674L14.5313 21.3008C14.6248 22.7627 13.4648 23.9997 12 24C10.5349 24 9.37417 22.7628 9.46777 21.3008L9.93066 14.0664L2.69922 14.5312C1.23738 14.6248 0.000262059 13.4648 0 12C-1.28076e-07 10.535 1.23723 9.37424 2.69922 9.46777L9.93164 9.93066L9.46875 2.69922C9.37515 1.23734 10.5352 0.000273687 12 0Z" fill="var(--fill-0, #1A1A1A)"/>
</svg>
