<svg preserveAspectRatio="none" width="100%" height="100%" overflow="visible" style="display: block;" viewBox="0 0 31.2691 31.2691" fill="none" xmlns="http://www.w3.org/2000/svg">
<path id="Star 7" d="M14.6521 0.813625C14.8578 -0.271205 16.4112 -0.27121 16.617 0.81362L17.9524 7.85314C18.0867 8.56082 18.9025 8.89875 19.4978 8.49327L25.4198 4.45985C26.3324 3.83828 27.4308 4.93667 26.8092 5.84928L22.7758 11.7712C22.3703 12.3666 22.7082 13.1824 23.4159 13.3167L30.4554 14.6521C31.5403 14.8578 31.5403 16.4112 30.4555 16.617L23.4159 17.9524C22.7082 18.0867 22.3703 18.9025 22.7758 19.4978L26.8092 25.4198C27.4308 26.3324 26.3324 27.4308 25.4198 26.8092L19.4978 22.7758C18.9025 22.3703 18.0867 22.7082 17.9524 23.4159L16.617 30.4554C16.4112 31.5403 14.8578 31.5403 14.6521 30.4555L13.3167 23.4159C13.1824 22.7082 12.3666 22.3703 11.7712 22.7758L5.84929 26.8092C4.93668 27.4308 3.83828 26.3324 4.45985 25.4198L8.49326 19.4978C8.89875 18.9025 8.56082 18.0867 7.85314 17.9524L0.813625 16.617C-0.271205 16.4112 -0.27121 14.8578 0.81362 14.6521L7.85314 13.3167C8.56082 13.1824 8.89875 12.3666 8.49327 11.7712L4.45985 5.84929C3.83828 4.93668 4.93667 3.83828 5.84928 4.45985L11.7712 8.49326C12.3666 8.89875 13.1824 8.56082 13.3167 7.85314L14.6521 0.813625Z" fill="var(--fill-0, #1A1A1A)"/>
</svg>
